<?xml version="1.0" encoding="UTF-8"?> <svg xmlns="http://www.w3.org/2000/svg" id="a" viewBox="0 0 230.83 224.06"><g><path d="M7.01,38.96l4.41-2.4c.33,1.16.93,2.04,1.81,2.65.88.6,2.02.91,3.41.91,1.19,0,2.13-.27,2.8-.82.68-.55,1.02-1.3,1.02-2.24,0-1.26-1.21-2.34-3.63-3.23-.82-.29-1.45-.54-1.89-.73-2.48-1.03-4.22-2.07-5.21-3.14-.99-1.06-1.48-2.35-1.48-3.87,0-2.07.81-3.76,2.44-5.05,1.63-1.29,3.78-1.93,6.45-1.93,1.8,0,3.34.33,4.62.99s2.22,1.6,2.81,2.83l-3.77,2.6c-.28-.73-.76-1.32-1.46-1.75-.69-.43-1.5-.65-2.41-.65-1.01,0-1.83.24-2.44.72-.61.48-.92,1.12-.92,1.92,0,1.21,1.37,2.31,4.12,3.31.86.31,1.53.56,2.01.76,2.14.85,3.67,1.81,4.59,2.88.92,1.07,1.38,2.4,1.38,4,0,2.32-.84,4.14-2.52,5.45s-4,1.97-6.96,1.97c-2.27,0-4.16-.43-5.66-1.27-1.5-.85-2.68-2.15-3.53-3.89v-.02Z" style="fill: #666;"></path><path d="M30.77,43.18v-18.57h-4.07v-4.65h4.07v-8.79h5.32v8.79h4.07v4.65h-4.07v18.57h-5.32Z" style="fill: #666;"></path><path d="M47.8,19.95v13.08c0,2.25.47,3.87,1.4,4.85s2.44,1.47,4.53,1.47,3.6-.49,4.53-1.47,1.4-2.6,1.4-4.85v-13.08h5.32v11.49c0,4.44-.89,7.67-2.67,9.68s-4.62,3.01-8.52,3.01-6.84-1-8.62-2.99-2.67-5.23-2.67-9.7v-11.49h5.32-.02Z" style="fill: #666;"></path><path d="M85.88,5.21h5.32v37.97h-5.32v-3.01c-.95,1.34-2.05,2.34-3.32,2.99-1.26.65-2.71.98-4.35.98-3.28,0-5.87-1.12-7.75-3.37-1.89-2.24-2.83-5.32-2.83-9.22s.96-6.7,2.89-8.98c1.93-2.28,4.44-3.42,7.54-3.42,1.89,0,3.51.4,4.86,1.19s2.33,1.93,2.95,3.42V5.21h.01ZM86.03,31.49c0-2.4-.56-4.27-1.68-5.61s-2.68-2.01-4.69-2.01-3.59.69-4.74,2.07-1.73,3.29-1.73,5.74.55,4.37,1.67,5.71c1.11,1.34,2.68,2.01,4.7,2.01s3.49-.72,4.68-2.17,1.79-3.36,1.79-5.74Z" style="fill: #666;"></path><path d="M94.2,15.86c0-.9.33-1.67.99-2.33.66-.65,1.45-.98,2.36-.98s1.73.31,2.36.94.94,1.42.94,2.36-.32,1.74-.96,2.39-1.42.97-2.35.97-1.7-.33-2.36-.99-.99-1.45-.99-2.36h0ZM94.91,43.18v-20.84h5.32v20.84h-5.32Z" style="fill: #666;"></path><path d="M103.02,31.59c0-1.7.32-3.3.97-4.81s1.57-2.85,2.78-4.03c1.19-1.16,2.56-2.05,4.12-2.67,1.55-.62,3.18-.93,4.87-.93s3.39.31,4.94.93c1.54.62,2.93,1.53,4.15,2.74,1.22,1.19,2.16,2.54,2.79,4.04.64,1.5.96,3.08.96,4.73s-.31,3.32-.94,4.83c-.63,1.5-1.55,2.83-2.76,3.99-1.27,1.23-2.69,2.15-4.24,2.78-1.55.63-3.19.94-4.9.94s-3.3-.32-4.85-.94c-1.55-.63-2.93-1.54-4.14-2.73-1.22-1.21-2.16-2.56-2.79-4.07-.64-1.5-.95-3.1-.95-4.8h-.01ZM122.99,31.64c0-2.16-.69-3.98-2.08-5.47-1.39-1.5-3.09-2.24-5.09-2.24s-3.69.75-5.08,2.24c-1.4,1.49-2.09,3.32-2.09,5.47s.7,3.98,2.09,5.47c1.4,1.5,3.09,2.24,5.08,2.24s3.69-.75,5.08-2.24c1.4-1.49,2.09-3.32,2.09-5.47Z" style="fill: #666;"></path></g><rect x="135.33" y="11.35" width="25.47" height="168.18" style="fill: #666;"></rect><path d="M67.6,52.29c-14.03,0-24.93,5.6-32.9,14.06v-11.62H9.05v164.11h25.66v-114.71c0-3.96,1.06-7.25,3.09-10.71.63-1.06,1.31-2.08,2.04-3.06.59-.78,1.21-1.53,1.87-2.25,5.82-6.36,14.17-10.2,23.55-10.2,17.67,0,31.5,13.94,31.5,32.78s-13.73,32.46-31.5,32.46c-2.31,0-12.14-.24-14.31-.68v25.55c2.87.56,13.46.89,16.65.89,30.75,0,56.08-25.86,56.08-58.32s-25.43-58.31-56.08-58.31h0Z" style="fill: #666;"></path><g><path d="M218.06,24.91c-3.17,0-5.76,2.58-5.76,5.76s2.59,5.76,5.76,5.76,5.76-2.58,5.76-5.76-2.59-5.76-5.76-5.76ZM222.94,30.67c0,2.69-2.19,4.89-4.88,4.89s-4.88-2.2-4.88-4.89,2.19-4.89,4.88-4.89,4.88,2.19,4.88,4.89Z" style="fill: #666;"></path><path d="M220.91,29.58c0-1.15-1.09-2.05-2.47-2.05h-2.62v6.3h1v-2.18h1.63l1.41,2.12.05.06h1.17l-1.61-2.38c.86-.31,1.43-1.04,1.43-1.87h0ZM216.82,28.39h1.57c.92,0,1.53.48,1.53,1.19,0,.6-.58,1.22-1.54,1.22h-1.55v-2.41h-.01Z" style="fill: #666;"></path></g><path d="M199.69,44.49v21.26h24.1v19.08h-24.1v43.82c.57,12.21,8.59,24.42,22.46,26.93v23.64c-14.17-1.58-26.96-8.19-36.25-21.68-5.4-7.84-8.04-17.26-8.34-26.71-.07-2.07-.06-4.13-.06-6.2v-39.81h-9.2v-19.08h9.2v-21.26h22.19Z" style="fill: #666;"></path></svg> 